M48
;Layer_Color=9474304
;FILE_FORMAT=2:4
INCH,TZ
;TYPE=PLATED
T1F00S00C0.0079
T2F00S00C0.0287
T3F00S00C0.0291
T4F00S00C0.0300
T5F00S00C0.0311
T6F00S00C0.0320
T7F00S00C0.0331
T8F00S00C0.0335
T9F00S00C0.0350
T10F00S00C0.0354
T11F00S00C0.0400
T12F00S00C0.0410
T13F00S00C0.0425
T14F00S00C0.0433
T15F00S00C0.0512
T16F00S00C0.0630
T17F00S00C0.1201
;TYPE=NON_PLATED
T18F00S00C0.0681
T19F00S00C0.1280
%
T01
X4888Y2231
X5691Y10065
X11708Y9627
Y10627
X11637Y10988
X12264Y10127
X12587Y9130
X12581Y8127
X13744Y8267
X14573Y8160
Y8840
Y9840
X13685Y9837
X13669Y9130
X13654Y10630
X13404Y11170
X13654Y11750
X15499Y10340
X15659Y9340
X15499Y8340
Y7340
X14573Y6840
X13777Y7205
X11708Y7627
X11790Y6322
X11847Y5060
X12244Y4610
X12614Y4150
X11791Y3888
X12611Y2613
X13864Y2470
X13759Y1648
X14900Y1977
X14907Y2792
X14900Y4297
X14904Y4960
X14704Y5637
X15974Y5137
X16844
X18363Y5624
X18251Y6840
X18254Y7840
X18544Y8280
X17325Y8820
Y7340
X19674Y6780
Y4776
X19224Y3230
X18404Y3776
X16136Y3637
X10670Y2113
X17324Y10340
X18254Y10000
X18664Y10760
X24552Y8480
X25224
X24904Y7810
X24554Y7790
X25164Y6872
X26354Y8250
X26144Y3500
X27144Y3420
X25144Y3870
X27894Y1650
X28814Y1640
X31474Y4900
X31469Y6220
X32476Y6050
X33636Y6530
X34476Y6050
X35474Y5440
X37386Y1305
X38627Y1305
X30344Y12060
X40364Y10120
X41664Y10160
X42775Y9782
X42514Y11060
X42604Y11482
X43649Y11350
X44504Y11173
Y11760
X45175Y11886
X45164Y11530
X45168Y11160
X44964Y10410
X44958Y9200
X44356Y9560
X44254Y8890
X42089Y8188
X40494Y7960
X41874Y5686
X43614Y4686
X44374Y4900
X45252Y3106
X45612Y3181
X45944Y3110
X47134Y3746
X47544Y5130
X46904Y5640
X49707Y6530
X50432Y6809
X50794Y6760
X50797Y8231
X51308
X51564
X51820
X52076
X52332
X52588
X52844
Y8700
X53356Y8231
X53612
X54123Y8233
X54379
X54634Y8232
X54891Y8233
X53400Y6893
X51968Y5915
X53724Y3950
X53624Y1270
X53554Y580
X54224Y637
X54579Y1138
X53719Y-540
X51744Y1270
X51597Y1705
X48353Y1616
X48860Y3027
X49320Y7191
X49611Y8233
X50004Y8266
Y9090
X50384Y9740
X50244Y10250
X49984Y11260
X49664Y11180
X48084Y10340
X48036Y9415
X45954Y10800
X45854Y11527
X52014Y10030
X53759Y11355
X45034Y1305
X43714
X41525
X40224Y1155
X55575Y1126
X55224Y637
X56225
X56546Y938
X57225Y637
X58225
X58576Y1126
X59593Y1109
X59226Y637
X60226
X60577Y1126
X61577
X61226Y637
X62193
X62443Y1124
X63575Y1196
X63227Y637
X64227
X64575Y1227
X65228Y637
X66228
X66579Y1126
X67228Y637
X68229
X69229
X70229
X69940Y4415
X70525Y4715
X69798Y6508
X69499Y6542
X69244Y6553
X68988
X68732
X68476
X68224Y6552
X69094Y7740
X70252Y9312
X65844Y10130
X64664Y11391
X63970Y11807
X61504Y9720
X60844Y9690
Y8630
X60010Y8754
X59484Y8760
X58966Y9439
X59172Y9692
X59174Y9948
Y10204
X59168Y10458
X59174Y10715
Y10971
Y11227
X59158Y11467
X59147Y11719
X59544Y12012
X57534Y11470
X57479Y10191
X57413Y8663
X56913Y8255
X56427Y8233
X56171
X55915
X55659
X55403
X55147
X56424Y9070
X56414Y10920
X55403Y11681
X55114Y5660
X56089Y4577
X56374Y4105
X57005Y3975
X57124Y3250
X56484Y2430
X60094Y5040
X60664Y5253
X60524Y7050
X61872Y6505
X62494Y6780
X62016Y7510
X62214Y8064
X61874Y8160
X61714Y8840
X62214Y9000
X63568Y6079
X64382Y6373
X65904Y6363
X64174Y5030
X62424Y3260
X66854Y3600
X57794Y7600
X72044Y7510
X72114Y8300
X72184Y6689
X72724Y7102
X74173Y7000
X74254Y7730
X74034Y8255
X76386Y7778
Y7319
X76391Y7019
X77656Y7295
X78778Y8720
X79534Y8210
X81924Y7520
X84144Y8560
X84140Y12010
X82645Y11985
Y11216
X80876Y11030
X76785Y10398
X74538Y11035
X71074Y11670
X71639Y4763
X71844Y4490
X72011Y2932
X72273Y1918
X72230Y637
X72609Y547
X73188Y594
X73609Y1073
X74176Y1173
X74564Y1090
X75054Y1120
X75202Y637
X75672Y1061
X76630
X76870Y1481
X76218Y1529
X75114Y1990
X73884Y2310
X74424Y3770
X73834Y4330
X74018Y4593
X76324Y4530
X77974Y4590
X79534
X78962Y2156
X78447Y2395
X78421Y1221
X78212Y677
X79200Y1203
X79631Y1145
X80294Y1168
X81174Y1129
X81632Y1145
X82242Y1144
X82724Y986
X83178Y1143
X83632Y1145
X84555Y1097
X84234Y709
X83166Y2791
X81972Y2631
X81174Y3050
X83314Y4510
X74557Y314
X73859Y299
X71230Y637
X71274Y890
X71628Y1145
X93900Y695
X94168Y845
X87904Y11194
X87114Y17610
X87087Y18571
X87575Y20197
X87598Y21229
X87613Y22363
X87652Y23459
X87635Y24444
X83778Y21116
X80730Y21232
X80453Y21395
X80348Y22650
X80009Y22675
X80348Y24457
X75184Y23930
X74324Y24090
X73244Y23930
X72314Y24070
X71344Y23940
X70847Y25543
X73503Y26110
X74244Y26210
X73974Y27058
X75064Y27180
X75807Y26217
X74003Y19654
X74106Y18657
X73469Y18823
X72059Y18657
X71547Y18910
X71603Y19551
X71103Y19441
X71035Y18660
X71291Y17180
X71803Y16828
X72315Y16856
X72827Y17030
X73854Y17180
X74362Y17176
X76400Y17549
Y18417
X76254Y15998
X76472Y14596
X76577Y14384
X76439Y14183
X76433Y13934
X76432Y13678
Y13422
Y13166
X77773Y13119
X77304Y14270
X73656Y14462
X73634Y13547
X73575Y13064
X73663Y12822
X73243Y13325
X73044Y15450
X72726Y20431
X72103Y20750
X70604Y20630
X84150Y15620
X82314Y13370
X81644Y13050
X69978Y16200
X70398Y16874
X70012Y18657
X70267Y19308
X70524Y19300
X69754Y19317
X69503Y19312
X69254Y19117
X68724Y18660
X67991
X67453Y18640
X67549Y19190
X66944Y18870
X66465Y18803
X66127Y19104
X65867Y19331
X65629Y19526
X65161Y19637
X64082Y20809
X63582
X63082
X62582
X62083Y20808
X61582Y20809
X61054Y22060
X59524Y22680
X58296Y23120
X56676Y21970
X56795Y19210
X55724Y19070
X55875Y17590
X55374Y17260
X56875Y16890
X57715Y16887
X57108Y15445
X55670Y15651
X55400Y13957
X55170
X56574Y13350
X57204Y13200
X57321Y12603
X58899Y12488
X58918Y12258
X58962Y13326
X59674Y13200
X61287Y14754
X61104Y15070
X61314Y15730
X65238Y15623
X64781Y15100
X64634Y14770
X64874Y13500
X64323Y13005
X63954Y13215
X64638Y16856
X65594Y16330
X66004Y17120
X68220Y17180
X68524Y15360
X67944Y15300
X68390Y19611
X68784Y22250
X68394Y23480
X69363Y24091
X70334Y23920
X70342Y24666
X69825Y26737
X68434Y25970
X67595Y25080
X66498Y24425
X65593Y23191
X65047Y23203
X64595Y23208
X64082Y23210
X63570Y23213
X63093Y23202
X62593
X62079
X61534Y25627
X62654Y26840
X58334Y26160
X57857Y18975
X63122Y18257
X66344Y20854
X66755Y22043
X70364Y21407
X53943Y19574
X52493Y19509
X49494Y19512
X48993Y19111
X48414Y19270
X47993Y20621
X46044Y19700
X44199Y19805
X42910Y19279
X42128Y20417
X42083Y21834
X43024Y21360
X44094Y21697
X44969Y22177
X45055Y17084
X44369Y17253
X45064Y16055
X44654Y15550
X44014Y15190
X43154Y16415
X41964Y18040
X40394Y21390
X40167Y21678
X39542Y23187
X49054Y23590
Y23930
X48834Y17880
X48993Y16970
X48174
X48493Y15700
X49493Y15860
X49783Y15335
X50483Y15757
X50727Y15530
X51214Y15340
X51827Y15381
X51493Y15856
X50993Y16967
X53943Y17241
X54504Y17261
X54279Y15365
X53881Y15366
X53364Y15610
X53110Y15660
X52854Y15272
X52606Y13903
X52086Y13730
X51531Y13935
X50734Y13680
X49891Y13019
X49624Y12763
X49510Y13282
X48019Y12663
X47993Y12251
X46074Y12196
X45174Y12163
X44274Y12344
X44464Y12888
X45444Y13720
X46036Y13790
X47154Y13540
X46307Y15736
X46214Y16500
X42932Y13412
X42904Y12160
X53965Y12639
X53620Y13897
X54494Y13890
X38946Y18178
X38574Y18858
X38944Y19520
X38946Y20498
X38784Y20840
X37857Y23610
X32776Y21686
X33296Y21008
X31456
X30616Y19858
X32296
X34456
X34344Y19180
X34714Y18260
X33254Y12600
X30950Y13343
X26428Y14998
X20146Y15000
X20984Y16018
X15274Y15000
X14491Y14998
X13974Y14590
X13674Y15590
X13671Y16090
X12594Y15090
X12384Y14840
X11724Y14590
X11884Y15590
X12594Y13930
X12684Y13340
X13674Y13590
X9674Y14220
X9174Y14780
Y16760
X10174
X10954Y17570
X12854Y18080
X12730Y26625
X10795Y24764
X17689Y24824
X17374Y23940
X8174Y13110
X9153Y12099
X6204Y13110
X5674Y14380
X5414Y14920
X7174Y14430
X6674Y17870
X7674
X3204Y18190
X1357Y18057
X1813Y17298
X1354Y16057
X824Y14900
X2834Y14230
X4888Y12160
X4819Y22065
X1354Y22057
X1674Y21057
X1984Y20057
X1504Y19570
X768Y23996
X3744Y26746
X4800Y25746
X3744Y28746
X3534Y29750
X3744Y30750
X4804Y32540
X5714Y33563
X12039Y31494
X13045
X17524Y31880
X17854Y31630
X18194Y30330
X18284Y34290
X15794Y28290
X25710Y31750
X30854Y28730
X33614Y29170
X34534Y32006
X44594Y32510
X48764Y36327
X52224Y34260
X58135Y34754
X58296Y36600
X58494Y37830
X60290Y37028
X62794Y35710
X62434Y33550
X62613Y29211
X60383Y29870
X59384Y31020
X59164Y31497
X58296Y32045
X58084Y29450
X58296Y27811
X69964Y30180
X67503Y38236
X74764Y37200
X75484Y36545
X75794Y34817
X74195Y34999
X73073Y35126
X73326Y33600
X73343Y31992
X73340Y30730
X74032Y30726
X75159Y30365
X75858Y31759
X75934Y32791
X75967Y28124
X75041Y28111
X74058Y29049
X70676Y30176
X83700Y33252
X84774Y34590
X85204Y35994
X84062Y36015
X84241Y37100
X84754Y36876
X85635Y36893
X86154Y37100
X86704Y36680
X88901Y36461
X88909Y37355
X90396Y37351
Y36461
X88878Y35574
X88164Y35570
X86884Y34440
X86726Y33250
X90004Y31170
X91465Y37987
T02
X78156Y37687
X81421
T03
X68819Y31280
Y32280
Y33280
Y34280
Y35280
Y36280
Y37280
X71945
Y36280
Y35280
Y34280
Y33280
Y32280
Y31280
T04
X47754Y831
X47751Y2276
X52151
X52154Y831
X85184Y2037
X89584
T05
X11345Y19634
Y20634
Y21634
Y22634
Y23634
Y24634
Y25634
Y26634
Y27634
X5345
Y26634
Y25634
Y24634
Y23634
Y22634
Y21634
Y20634
Y19634
Y28634
Y29634
Y30634
X11345
Y29634
Y28634
T06
X26456Y7498
X27456
X28456
X29456
X30456
X31456
X32456
X33456
X34456
X35456
X36456
X37456
X38456
X39456
X40456
X41456
X79734Y9507
X80734
X81734
X82734
X83734
X84734
X85734
Y3507
X84734
X83734
X82734
X81734
X80734
X79734
X86734
X87734
X88734
X89734
X90734
X91734
X92734
Y9507
X91734
X90734
X89734
X88734
X87734
X86734
X85204Y18957
X85212Y19980
X85222Y20988
X85230Y22026
X85237Y23030
X85241Y24006
X81241
X81237Y23030
X81230Y22026
X81222Y20988
X81212Y19980
X81204Y18957
X71856Y25723
Y26723
X68856
Y25723
X68017Y26327
Y27327
X62017
Y26327
X57348Y25945
X56348
X55348
Y24469
X56348
X57348
Y21469
X56348
X55348
X54348
X53348
X52348
X51348
X50348
X49348
X48348
Y24469
X49348
X50348
X51348
X52348
X53348
X54348
Y25945
X53348
X52348
X51348
X50348
X49348
X48348
X46018Y26006
Y25006
Y24006
Y27006
X40018
Y26006
Y25006
Y24006
X40456Y13498
X41456
X39456
X38456
X37456
X36456
X35456
X34456
X33456
X32456
X31456
X30456
X29456
X28456
X27456
X26456
X28453Y15980
X29453
X30453
X31453
X32453
X33453
X34453
X35453
X36453
X37453
X36113Y24733
Y25733
Y26733
X35113
Y25733
Y24733
Y23733
X34113
Y24733
X33113
Y23733
X32113
X31113
Y24733
X30113
Y23733
X29113Y24733
Y25733
X30113
Y26733
X29113
X24505Y26435
Y25435
X25505
Y24435
Y23435
X24505
Y22435
Y21435
X25505
Y22435
Y20435
X24505
Y19435
X25505
Y18435
X24505
Y17435
X25505
X24505Y16435
Y24435
X32113Y24733
X23505Y25435
X22505
X21505
Y26435
X20505
X19505
X18505
X17505
Y25435
X16505
Y24435
Y23435
Y22435
Y21435
X15505
Y20435
Y19435
Y18435
Y17435
X16505
Y16435
X17505
X18505
X19505
Y17435
X18505
X17505
X16505Y18435
Y19435
Y20435
X15505Y22435
Y23435
Y24435
Y25435
X16505Y26435
X18505Y25435
X19505
X20505
X22505Y26435
X23505
Y17435
Y16435
X22505
Y17435
X21505
Y16435
X20505
Y17435
X20109Y29170
X21109
X22109
X23109
Y32170
X22109
X21109
X20109
X19109
X18109
X17109
X16109
X15109
X14779Y34287
X15779
X16779
X17779
X18779
X19779
X19109Y29170
X18109
X17109
X16109
X15109
X24109
Y32170
X30113Y30733
Y29733
Y28733
Y27733
X29113
Y28733
Y29733
X31113
X32113
Y30733
X33113
Y29733
X34113
Y30733
X35113
Y29733
X36113
Y28733
X35113
Y27733
X36113
X35645Y34981
X36645
X34645
X33645
X32645
X31645
X30645
Y37981
X31645
X32645
X33645
X34645
X35645
X36645
X31113Y30733
X40018Y31006
Y32006
Y33006
Y34006
Y35006
Y36006
Y37006
X46018
Y36006
Y35006
Y34006
Y33006
Y32006
Y31006
Y30006
Y29006
Y28006
X48348Y28945
X49348
X50348
X51348
X52348
X53348
X54348
X54349Y30422
X53348
X52348
X51349
X50349
X49349
X48348
Y33422
X49349
X50349
X51349
X52348
X53348
X54349
Y34898
X53348
X52348
X51349
X50349
X49349
X48348
Y37898
X49349
X50349
X51349
X52348
X53348
X54349
X40018Y30006
Y29006
Y28006
X55348Y28945
X56348
X57348
X57348Y30422
X56349
X55349
Y33422
X56349
X57348
Y34898
X56349
X55349
Y37898
X56349
X57348
X62017Y37327
Y36327
Y35327
Y34327
Y33327
Y32327
Y31327
Y30327
Y29327
Y28327
X68017
Y29327
Y30327
Y31327
Y32327
Y33327
Y34327
Y35327
Y36327
Y37327
X68856Y28723
Y27723
X71856
Y28723
T07
X73066Y36599
X73566
X74066
T08
X84567Y31173
X85945
T09
X92283Y11744
X91685Y12744
X92283Y15724
X91685Y16724
T10
X86858Y12982
Y13986
Y14986
Y15986
X87858Y15486
Y14486
Y13482
Y12482
T11
X79064Y25802
X80064
X81064
X7272Y36309
Y37309
X6272
Y36309
X5272
X4272
Y37309
X5272
X3272
Y36309
X2272
Y37309
X8272
Y36309
X9272
X10272
X11272
X12272
X13272
X14272
X15272
X16272
X17272
X18272
Y37309
X17272
X16272
X15272
X14272
X13272
X12272
X11272
X10272
X9272
T12
X89100Y22316
Y23218
Y24120
Y25025
Y25927
X90100Y26374
Y25472
Y24570
Y23669
Y22767
X91100Y22316
Y23218
Y24120
Y25025
Y25927
T13
X84333Y26210
X85333
X12892Y24037
Y23037
X1747Y33290
X747
T14
X23083Y36040
Y37040
X24083
Y36040
X25083
Y37040
X26083
Y36040
X27083
Y37040
T15
X91042Y31911
Y32896
Y34864
Y35849
X93011Y33880
T16
X89153Y11173
Y17295
X93011Y31911
Y35849
X91042Y33880
T17
X90100Y19299
Y29137
T18
X77189Y21130
Y23130
T19
X90354Y11984
Y16484
M30
